<?xml version="1.0" encoding="utf-8"?>
<!-- Generator: Adobe Illustrator 21.0.1, SVG Export Plug-In . SVG Version: 6.00 Build 0)  -->
<svg version="1.1" id="Layer_1" xmlns="http://www.w3.org/2000/svg" xmlns:xlink="http://www.w3.org/1999/xlink" x="0px" y="0px"
	 viewBox="0 0 358.3 52.1" style="enable-background:new 0 0 358.3 52.1;" xml:space="preserve">
<style type="text/css">
	.st0{enable-background:new    ;}
</style>
<g class="st0">
	<path d="M0,40.9h1.7c0.7,0,1.9-1.2,1.9-1.9V13.7c0-0.7-1.2-1.9-1.9-1.9H0V1h44.5v17.4H33.2l-1.7-5.7h-7.9v7.2h10.9v11.6H23.6v8.6
		h8.1l1.5-7h11.9v18.3h-45V40.9H0z"/>
	<path d="M51.4,40.9h1.7c0.7,0,1.9-1.2,1.9-1.9V13.7c0-0.7-1.2-1.9-1.9-1.9h-1.7V1h22.5l12.4,22.5h0.2V11.8h-3.7V1H104v10.8h-1.4
		c-0.7,0-1.9,1.2-1.9,1.9v37.7H83.3L69.5,26.3h-0.2v14.6h4v10.4H51.6V40.9H51.4z"/>
	<path d="M110.1,40.9h1.7c0.7,0,1.9-1.2,1.9-1.9V13.7c0-0.7-1.2-1.9-1.9-1.9h-1.7V1h25.1c20.2,0,28.3,8.1,28.3,24.8
		c0,16.7-8.4,25.6-28.9,25.6h-24.5V40.9z M134.6,40.4c5.6,0,8.5-4.4,8.5-13.8s-2.7-14-8.5-14h-0.9v27.9h0.9V40.4z"/>
	<path d="M168.8,40.9h1.7c0.7,0,1.9-1.2,1.9-1.9V13.7c0-0.7-1.2-1.9-1.9-1.9h-1.7V1h28.7v10.8h-5.2v28.3h7.3l1.5-8.3H213v19.6h-44.3
		L168.8,40.9L168.8,40.9z"/>
	<path d="M219.2,40.9h1.7c0.7,0,1.9-1.2,1.9-1.9V13.7c0-0.7-1.2-1.9-1.9-1.9h-1.7V1h44.4v17.4h-11.3l-1.7-5.7h-7.9v7.2h10.9v11.6
		h-10.9v8.6h8.1l1.5-7h11.9v18.3h-45V40.9z"/>
	<path d="M282.6,51.3h-12V35h12.7l1.7,5.6c0.8,0.1,1.7,0.2,2.7,0.2c2.6,0,4.8-0.8,4.8-3.2c0-2.2-1.8-3-6.3-4.1
		c-7.5-1.9-15.6-4.3-15.6-16.6C270.6,4.4,279.2,0,290,0c5.1,0,7.6,0.4,10.1,0.9h9.9V16h-12.5l-1.7-5.3c-0.6-0.1-1.4-0.1-2.2-0.1
		c-3.2,0-5,1-5,3.4s2.2,2.9,4.5,3.5c14,3.9,18.4,7.2,18.4,17.2c0,11.3-5.9,17.4-20.1,17.4C287.9,52.2,285.4,51.9,282.6,51.3z"/>
	<path d="M329.5,51.3h-12V35h12.7l1.7,5.6c0.8,0.1,1.7,0.2,2.7,0.2c2.6,0,4.8-0.8,4.8-3.2c0-2.2-1.8-3-6.3-4.1
		c-7.5-1.9-15.6-4.3-15.6-16.6c0-12.5,8.6-16.9,19.4-16.9c5.1,0,7.6,0.4,10.1,0.9h9.9V16h-12.6l-1.7-5.3c-0.6-0.1-1.4-0.1-2.2-0.1
		c-3.2,0-5,1-5,3.4s2.2,2.9,4.5,3.5c14,3.9,18.4,7.2,18.4,17.2c0,11.3-5.9,17.4-20.1,17.4C334.8,52.2,332.4,51.9,329.5,51.3z"/>
</g>
</svg>
